# xmcd
#
# Track frame offsets:
#	150
#	12667
#	30956
#	42819
#	55463
#	65576
#	76774
#	101235
#	116724
#	150351
#	165579
#	179940
#	192233
#	202246
#	216419
#
# Disc length: 3423 seconds
#
# Revision: 0
# Processed by: cddbd v1.5.2PL0 Copyright (c) Steve Scherf et al.
# Submitted via: audiograbber 1.83.01
#
DISCID=d80d5d0f
DTITLE=Various Artist - Soul At Its Best CD2
DYEAR=1900
DGENRE=Soul
TTITLE0=When A Men Loves A Woman -  Percy Sledge
TTITLE1=Ball Of Confusion - The Temtations
TTITLE2=Never Knew Love This Before - Stephanie Mills
TTITLE3=Soul Man - Sam and Dave
TTITLE4=Its In His Kiss - Betty Everett
TTITLE5=Holy Cow - Lee Dorsey
TTITLE6=Lets Get It On (Live) - Marvin Gaye
TTITLE7=My Guy - Mary Wells
TTITLE8=One Nation Under A Groove - Fundadelic
TTITLE9=Every Little Bit Hurts - Peggy Scott
TTITLE10=Rock Your Baby - George MCCrea
TTITLE11=For Your Precious Love - Jerry Butler
TTITLE12=Save The Last Dance For Me - The Drifters
TTITLE13=Theres A Long Road Aheard Of Us - Dionne Warwick
TTITLE14=Its A Mans World - James Brown
EXTD=
EXTT0=
EXTT1=
EXTT2=
EXTT3=
EXTT4=
EXTT5=
EXTT6=
EXTT7=
EXTT8=
EXTT9=
EXTT10=
EXTT11=
EXTT12=
EXTT13=
EXTT14=
PLAYORDER=
